<svg id="Layer_1" enable-background="new 0 0 512 512" height="512" viewBox="0 0 512 512" width="512" xmlns="http://www.w3.org/2000/svg"><g><g><path d="m419.191 229.017c0 90.32-73.22 163.54-163.54 163.54-90.22 0-163.38-73.06-163.54-163.24v-.3c0-70.01 44-129.75 105.86-153.07 17.94-6.76 37.38-10.46 57.68-10.46 90.32 0 163.54 73.22 163.54 163.53z" fill="#ffe26f"/><path d="m255.651 65.487c-20.3 0-39.74 3.7-57.68 10.46 12.56-3.22 25.72-4.92 39.28-4.92 80 0 146.14 59.36 156.79 136.44 1.6 11.56-7.48 21.85-19.16 21.85h-282.77c.16 90.18 73.32 163.24 163.54 163.24 90.32 0 163.54-73.22 163.54-163.54 0-90.31-73.22-163.53-163.54-163.53z" fill="#ffc54b"/><path d="m364.691 229.017c0 60.23-48.82 109.05-109.04 109.05-60.12 0-108.88-48.66-109.04-108.75v-.3c0-55.08 40.85-100.63 93.9-107.98 4.95-.7 10-1.06 15.14-1.06 60.22 0 109.04 48.82 109.04 109.04z" fill="#ffc54b"/><path d="m364.691 229.017c0 60.23-48.82 109.05-109.04 109.05-60.12 0-108.88-48.66-109.04-108.75h167.6c12.88 0 22.6-11.93 19.72-24.48-10.18-44.36-47.42-78.4-93.42-83.8 4.95-.7 10-1.06 15.14-1.06 60.22 0 109.04 48.82 109.04 109.04z" fill="#fb963f"/></g><g><path d="m482.278 260.927c0 74.59-36.04 140.77-91.66 182.07l-79.73 27.68-15.55-6.52-242.37-101.56c-9.4-18.68-16.28-38.83-20.22-60.03l15.35-41.64z" fill="#7ac2ed"/><path d="m482.278 260.927c0 74.59-36.04 140.77-91.66 182.07l-79.73 27.68-15.55-6.52c86.82-26.76 149.93-107.64 149.93-203.23z" fill="#68a6dc"/><path d="m85.758 260.927c-7.98 18.93-22.51 35.41-53.01 41.64-2.51-13.5-3.82-27.42-3.82-41.64z" fill="#d1e16f"/><path d="m390.614 442.994c-37.707 28.001-84.426 44.572-135.015 44.572-55.17 0-105.73-19.701-145.027-52.462-23.844-19.861-43.528-44.532-57.601-72.503 89.307 0 34.106-60.032 75.514-60.032 55.33 0 48.189 89.813 78.415 105.414 29.856 15.421 52.16-16.881 94.608-16.881 32.246 0 32.596 28.101 54.59 42.952 7.891 5.32 18.573 8.94 34.516 8.94z" fill="#d1e16f"/><path d="m356.097 434.054c7.891 5.32 18.573 8.94 34.516 8.94-37.707 28.001-84.426 44.572-135.015 44.572-55.17 0-105.73-19.701-145.027-52.462 34.536 24.241 76.614 38.461 122.023 38.461 46.049 0 88.687-14.64 123.503-39.511z" fill="#9ccc4b"/></g><g><path d="m504.5 368.175c0 10.05-8.158 18.207-18.21 18.207h-96.775c-13.71 0-24.822-11.117-24.822-24.825 0-13.701 11.112-24.818 24.822-24.818 5.712 0 10.974 1.93 15.169 5.174 3.164-17.663 18.609-31.073 37.181-31.073 8.455 0 16.272 2.779 22.572 7.474 9.225 6.887 15.205 17.895 15.205 30.297 0 .885-.029 1.771-.087 2.641 2.083-.827 4.355-1.284 6.735-1.284 10.052 0 18.21 8.149 18.21 18.207z" fill="#e6f8fc"/><path d="m504.5 368.175c0 10.05-8.158 18.207-18.21 18.207h-96.775c-13.71 0-24.822-11.117-24.822-24.825 0 6.814 8.426 12.953 15.234 12.953h53.845c20.082-.196 36.296-16.538 36.296-36.661 0-7.184-2.061-13.882-5.632-19.535 9.225 6.887 15.205 17.895 15.205 30.297 0 .885-.029 1.771-.087 2.641 2.083-.827 4.355-1.284 6.735-1.284 10.053 0 18.211 8.149 18.211 18.207z" fill="#d0edf5"/></g><path d="m263.318 260.925c20.664 16.827 38.926 43.009 32.901 56.807-7.142 16.355-58.734 12.62-71.346 0-9.066-9.071-13.613-38.459-9.333-56.805z" fill="#d1e16f"/></g><g><path d="m425.42 422.392c2.853-3.002 2.732-7.75-.271-10.603-3.002-2.853-7.75-2.732-10.603.271-8.185 8.614-16.959 16.486-26.276 23.585-26.777-.693-35.341-12.923-44.392-25.85-8.554-12.217-18.249-26.064-42.315-26.064-20.464 0-36.246 6.792-50.169 12.786-16.027 6.898-27.608 11.882-41.01 4.957-9.446-4.88-15.133-21.888-21.154-39.895-9.901-29.61-22.223-66.462-60.719-66.462-23.611 0-25.207 17.089-26.262 28.397-1.47 15.745-2.861 30.647-44.692 31.644-7.112-14.944-12.496-30.67-16.049-46.929 23.035-6.364 39.177-19.454 49.099-39.801h116.205c-1.72 19.192 2.703 44.548 12.757 54.607 8.584 8.59 28.316 13.102 45.901 13.102 5.435 0 10.665-.431 15.297-1.306 14.566-2.751 20.181-9.184 22.326-14.096 6.658-15.247-6.114-36.316-20.917-52.307h192.571c-.244 7.227-.838 14.447-1.777 21.548-.542 4.106 2.346 7.875 6.453 8.418.333.044.665.065.992.065 3.705 0 6.927-2.745 7.426-6.518 1.024-7.75 1.665-15.63 1.914-23.514h14.745c4.142 0 7.5-3.358 7.5-7.5s-3.358-7.5-7.5-7.5h-497c-4.142 0-7.5 3.358-7.5 7.5s3.358 7.5 7.5 7.5h14.045c1.866 59.79 26.017 115.727 68.484 158.221 44.239 44.267 103.058 68.646 165.622 68.646 32.661 0 64.268-6.599 93.943-19.615 28.661-12.57 54.173-30.498 75.826-53.287zm-203.563-153.965h38.748c9.103 7.757 17.323 17.111 22.787 25.974 6.401 10.383 7.272 17.31 5.953 20.331-.706 1.616-4.105 3.989-11.364 5.36-17.394 3.286-41.677-1.53-47.804-7.66-5.733-5.738-10.246-27.295-8.32-44.005zm-185.304 0h36.898c-7.844 12.313-19.132 20.434-34.653 24.978-1.211-8.223-1.964-16.559-2.245-24.978zm219.098 211.867c-58.556 0-113.606-22.817-155.012-64.25-13.981-13.99-25.841-29.537-35.419-46.25 19.119-1.378 32.529-6.196 40.802-14.616 9.21-9.374 10.292-20.961 11.161-30.271 1.162-12.448 1.686-14.792 11.327-14.792 25.767 0 35.138 22.259 46.493 56.219 7.014 20.977 13.639 40.79 28.495 48.464 19.704 10.181 36.278 3.047 53.825-4.505 13.208-5.685 26.866-11.563 44.239-11.563 16.257 0 22.033 8.25 30.027 19.667 7.844 11.203 17.182 24.54 38.185 29.887-8.381 5.115-17.125 9.674-26.206 13.657-27.763 12.179-57.343 18.353-87.917 18.353z"/><path d="m486.732 342.458c-3.002-22.087-21.977-39.163-44.862-39.163-18.557 0-34.816 11.194-41.742 27.695-3.372-1.171-6.94-1.773-10.611-1.773-17.823 0-32.324 14.507-32.324 32.339s14.5 32.339 32.324 32.339h37.96c4.142 0 7.5-3.358 7.5-7.5s-3.358-7.5-7.5-7.5h-37.96c-9.552 0-17.324-7.778-17.324-17.339s7.771-17.339 17.324-17.339c3.87 0 7.528 1.248 10.579 3.608 2.075 1.605 4.838 2.01 7.285 1.066 2.448-.943 4.225-3.096 4.687-5.678 2.582-14.438 15.116-24.918 29.802-24.918 16.694 0 30.276 13.593 30.276 30.3 0 .705-.025 1.421-.074 2.129-.178 2.573.978 5.057 3.062 6.577 2.084 1.521 4.803 1.863 7.198.907 1.255-.5 2.587-.754 3.958-.754 5.905 0 10.709 4.809 10.709 10.721s-4.804 10.721-10.709 10.721h-24.232c-4.142 0-7.5 3.358-7.5 7.5s3.358 7.5 7.5 7.5h24.232c14.176 0 25.709-11.538 25.709-25.721.001-14.035-11.293-25.481-25.267-25.717z"/><path d="m40.363 497h-32.863c-4.142 0-7.5 3.358-7.5 7.5s3.358 7.5 7.5 7.5h32.863c4.142 0 7.5-3.358 7.5-7.5s-3.358-7.5-7.5-7.5z"/><path d="m143.403 497h-67.877c-4.142 0-7.5 3.358-7.5 7.5s3.358 7.5 7.5 7.5h67.877c4.142 0 7.5-3.358 7.5-7.5s-3.358-7.5-7.5-7.5z"/><path d="m90.382 479.967c4.142 0 7.5-3.358 7.5-7.5s-3.358-7.5-7.5-7.5h-62.874c-4.142 0-7.5 3.358-7.5 7.5s3.358 7.5 7.5 7.5z"/><path d="m415.032 497h-62.875c-4.142 0-7.5 3.358-7.5 7.5s3.358 7.5 7.5 7.5h62.875c4.142 0 7.5-3.358 7.5-7.5s-3.358-7.5-7.5-7.5z"/><path d="m504.5 464.967h-92.886c-4.142 0-7.5 3.358-7.5 7.5s3.358 7.5 7.5 7.5h92.886c4.142 0 7.5-3.358 7.5-7.5s-3.358-7.5-7.5-7.5z"/><path d="m92.114 236.678c4.142 0 7.5-3.358 7.5-7.5 0-86.124 69.998-156.19 156.037-156.19s156.037 70.067 156.037 156.19c0 4.142 3.358 7.5 7.5 7.5s7.5-3.358 7.5-7.5c0-94.395-76.727-171.19-171.037-171.19s-171.037 76.795-171.037 171.19c0 4.142 3.358 7.5 7.5 7.5z"/><path d="m159.014 163.958c-13.023 19.294-19.906 41.848-19.906 65.22 0 4.142 3.358 7.5 7.5 7.5s7.5-3.358 7.5-7.5c0-20.371 5.996-40.022 17.339-56.829 2.317-3.433 1.412-8.095-2.021-10.413-3.432-2.316-8.094-1.412-10.412 2.022z"/><path d="m255.651 112.532c-26.072 0-50.725 8.425-71.292 24.364-3.274 2.537-3.871 7.249-1.334 10.522s7.249 3.872 10.522 1.334c17.914-13.883 39.389-21.221 62.104-21.221 55.991 0 101.543 45.598 101.543 101.646 0 4.142 3.358 7.5 7.5 7.5s7.5-3.358 7.5-7.5c0-64.318-52.281-116.645-116.543-116.645z"/><path d="m255.651 43.029c4.142 0 7.5-3.358 7.5-7.5v-28.029c0-4.142-3.358-7.5-7.5-7.5s-7.5 3.358-7.5 7.5v28.029c0 4.142 3.358 7.5 7.5 7.5z"/><path d="m34.111 236.678h28.002c4.142 0 7.5-3.358 7.5-7.5s-3.358-7.5-7.5-7.5h-28.002c-4.142 0-7.5 3.358-7.5 7.5s3.358 7.5 7.5 7.5z"/><path d="m441.687 229.178c0 4.142 3.358 7.5 7.5 7.5h28.002c4.142 0 7.5-3.358 7.5-7.5s-3.358-7.5-7.5-7.5h-28.002c-4.142 0-7.5 3.358-7.5 7.5z"/><path d="m423.266 139.82c1.273 0 2.564-.325 3.746-1.008l24.251-14.014c3.586-2.072 4.814-6.66 2.741-10.246-2.073-3.587-6.66-4.814-10.246-2.741l-24.251 14.014c-3.586 2.072-4.814 6.66-2.741 10.246 1.389 2.405 3.909 3.749 6.5 3.749z"/><path d="m348.671 67.909c1.181.681 2.469 1.005 3.741 1.005 2.593 0 5.115-1.347 6.503-3.754l14.001-24.274c2.07-3.588.839-8.175-2.749-10.244-3.588-2.07-8.174-.839-10.244 2.749l-14.001 24.274c-2.069 3.588-.839 8.175 2.749 10.244z"/><path d="m60.04 124.798 24.251 14.014c1.182.683 2.472 1.008 3.746 1.008 2.591 0 5.111-1.344 6.5-3.749 2.073-3.586.845-8.174-2.741-10.246l-24.251-14.014c-3.585-2.073-8.173-.846-10.246 2.741-2.073 3.586-.846 8.174 2.741 10.246z"/><path d="m152.386 65.16c1.389 2.408 3.911 3.754 6.503 3.754 1.271 0 2.56-.324 3.74-1.005 3.588-2.069 4.819-6.656 2.75-10.244l-14.001-24.274c-2.07-3.589-6.657-4.82-10.244-2.75-3.588 2.069-4.819 6.656-2.75 10.244z"/></g></svg>