<svg id="Capa_1" enable-background="new 0 0 512 512" height="512" viewBox="0 0 512 512" width="512" xmlns="http://www.w3.org/2000/svg"><g><g><path d="m256 0c-68.203 0-105 132.382-105 256s36.797 256 105 256 105-132.382 105-256-36.797-256-105-256zm0 482c-35.405 0-75-97.226-75-226s39.595-226 75-226 75 97.226 75 226-39.595 226-75 226z" fill="#65d6a9"/><path d="m361 256c0-123.618-36.797-256-105-256v30c35.405 0 75 97.226 75 226s-39.595 226-75 226v30c68.203 0 105-132.382 105-256z" fill="#26bfa6"/><circle cx="256" cy="256" fill="#5e79bc" r="45"/><path d="m301 256c0-24.814-20.186-45-45-45v90c24.814 0 45-20.186 45-45z" fill="#47568c"/></g><path d="m308.5 165.063c-17.023-9.827-34.7-18.834-52.5-26.986-94.124-43.1-192.162-59.233-220.84-9.577-40.827 70.756 97.042 177.277 168.34 218.438 14.425 8.328 32.554 17.602 52.5 26.567 79.241 35.614 188.481 66.05 220.84 9.996 40.827-70.757-97.042-177.278-168.34-218.438zm142.354 203.437c-15.661 27.206-98.54 19.351-194.854-27.653-12.327-6.015-24.846-12.587-37.5-19.896-54.598-31.52-184.847-129.875-157.354-177.451 20.691-35.839 122.069-5.907 194.854 28.22 13.726 6.436 26.55 13.006 37.5 19.329 54.598 31.52 184.847 129.875 157.354 177.451z" fill="#ff6e83"/><path d="m476.84 383.5c40.827-70.756-97.042-177.277-168.34-218.438-17.023-9.827-34.7-18.834-52.5-26.986v33.644c13.726 6.436 26.55 13.006 37.5 19.329 54.598 31.52 184.847 129.875 157.354 177.451-15.661 27.206-98.54 19.351-194.854-27.653v32.657c79.241 35.614 188.481 66.05 220.84 9.996z" fill="#ff3b7f"/><path d="m476.84 128.5c-28.643-49.66-126.687-33.523-220.84 9.584-17.8 8.148-35.475 17.155-52.5 26.979-71.662 41.37-209.105 147.788-168.34 218.437 32.245 55.858 141.412 25.659 220.84-10.005 19.905-8.937 38.022-18.199 52.5-26.558 71.662-41.37 209.105-147.788 168.34-218.437zm-183.34 192.451c-12.656 7.306-25.173 13.874-37.5 19.887-96.304 46.98-179.152 54.829-194.854 27.662-26.58-45.994 98.707-143.593 157.354-177.451 10.752-6.207 23.608-12.817 37.5-19.356 71.453-33.631 173.492-65.195 194.854-28.193 26.579 45.994-98.707 143.593-157.354 177.451z" fill="#b3e4ff"/><path d="m476.84 128.5c-28.643-49.66-126.687-33.523-220.84 9.584v33.609c71.453-33.631 173.492-65.195 194.854-28.193 26.58 45.994-98.707 143.593-157.354 177.451-12.656 7.306-25.173 13.874-37.5 19.887v32.657c19.905-8.937 38.022-18.199 52.5-26.558 71.662-41.37 209.105-147.788 168.34-218.437z" fill="#5dacff"/></g></svg>